<mxfile host="65bd71144e">
    <diagram id="YjR4OtMVGLBkvg9cxg-1" name="Page-1">
        <mxGraphModel dx="409" dy="1413" grid="1" gridSize="10" guides="1" tooltips="1" connect="1" arrows="1" fold="1" page="1" pageScale="1" pageWidth="850" pageHeight="1100" math="0" shadow="0">
            <root>
                <mxCell id="0"/>
                <mxCell id="1" parent="0"/>
                <mxCell id="9" value="" style="rounded=0;whiteSpace=wrap;html=1;strokeColor=#00CC66;strokeWidth=3;" parent="1" vertex="1">
                    <mxGeometry x="240" y="122" width="390" height="128" as="geometry"/>
                </mxCell>
                <mxCell id="13" value="" style="rounded=0;whiteSpace=wrap;html=1;strokeColor=#00CC66;strokeWidth=3;" vertex="1" parent="1">
                    <mxGeometry x="235" y="-50" width="390" height="128" as="geometry"/>
                </mxCell>
                <mxCell id="2" value="" style="endArrow=classic;html=1;fillColor=#1ba1e2;strokeColor=#00FFFF;" parent="1" edge="1">
                    <mxGeometry width="50" height="50" relative="1" as="geometry">
                        <mxPoint x="20" y="30" as="sourcePoint"/>
                        <mxPoint x="90" y="30" as="targetPoint"/>
                    </mxGeometry>
                </mxCell>
                <mxCell id="3" value="Lib" style="rounded=1;whiteSpace=wrap;html=1;strokeColor=#FF8000;strokeWidth=3;" parent="1" vertex="1">
                    <mxGeometry x="30" y="50" width="50" height="40" as="geometry"/>
                </mxCell>
                <mxCell id="4" value="Class" style="whiteSpace=wrap;html=1;strokeColor=#00FFFF;rounded=1;strokeWidth=3;" parent="1" vertex="1">
                    <mxGeometry x="10" y="122" width="90" height="40" as="geometry"/>
                </mxCell>
                <mxCell id="6" value="Interface" style="whiteSpace=wrap;html=1;strokeColor=#9999FF;rounded=1;strokeWidth=3;" parent="1" vertex="1">
                    <mxGeometry x="10" y="192" width="90" height="40" as="geometry"/>
                </mxCell>
                <mxCell id="8" value="Model" style="whiteSpace=wrap;html=1;strokeColor=#FF99CC;rounded=1;strokeWidth=3;" parent="1" vertex="1">
                    <mxGeometry x="10" y="260" width="90" height="40" as="geometry"/>
                </mxCell>
                <mxCell id="10" value="Domain" style="text;html=1;align=center;verticalAlign=middle;resizable=0;points=[];autosize=1;strokeColor=none;fillColor=none;" parent="1" vertex="1">
                    <mxGeometry x="570" y="93" width="60" height="20" as="geometry"/>
                </mxCell>
                <mxCell id="19" style="edgeStyle=none;html=1;entryX=0;entryY=0.5;entryDx=0;entryDy=0;" edge="1" parent="1" source="11" target="17">
                    <mxGeometry relative="1" as="geometry"/>
                </mxCell>
                <mxCell id="11" value="DeleteEvent" style="whiteSpace=wrap;html=1;strokeColor=#00FFFF;rounded=1;strokeWidth=3;" parent="1" vertex="1">
                    <mxGeometry x="285" y="166" width="140" height="40" as="geometry"/>
                </mxCell>
                <mxCell id="18" style="edgeStyle=none;html=1;entryX=0.5;entryY=0;entryDx=0;entryDy=0;" edge="1" parent="1" source="12" target="17">
                    <mxGeometry relative="1" as="geometry"/>
                </mxCell>
                <mxCell id="12" value="MongoLoadGroutpRepo" style="whiteSpace=wrap;html=1;strokeColor=#00FFFF;rounded=1;strokeWidth=3;" vertex="1" parent="1">
                    <mxGeometry x="365" y="-6" width="140" height="40" as="geometry"/>
                </mxCell>
                <mxCell id="15" value="Infra" style="text;html=1;align=center;verticalAlign=middle;resizable=0;points=[];autosize=1;strokeColor=none;fillColor=none;" vertex="1" parent="1">
                    <mxGeometry x="575" y="-80" width="40" height="20" as="geometry"/>
                </mxCell>
                <mxCell id="17" value="LoadGroupRepo" style="whiteSpace=wrap;html=1;strokeColor=#9999FF;rounded=1;strokeWidth=3;" vertex="1" parent="1">
                    <mxGeometry x="460" y="166" width="140" height="40" as="geometry"/>
                </mxCell>
            </root>
        </mxGraphModel>
    </diagram>
</mxfile>